<svg width="27" height="26" viewBox="0 0 27 26" fill="none" xmlns="http://www.w3.org/2000/svg">
<ellipse cx="13.5034" cy="13.1854" rx="12.6284" ry="12.6" fill="#1E293B"/>
<path d="M19.1016 10.4706C18.7237 10.6382 18.3247 10.743 17.9047 10.8059C18.3247 10.5544 18.6607 10.1564 18.8077 9.67449C18.4087 9.90495 17.9677 10.0726 17.4848 10.1773C17.1068 9.77925 16.5608 9.52783 15.9729 9.52783C14.839 9.52783 13.9151 10.4497 13.9151 11.581C13.9151 11.7487 13.9361 11.8953 13.9781 12.042C12.2772 11.9582 10.7443 11.1411 9.7154 9.884C9.54742 10.1983 9.44243 10.5335 9.44243 10.9106C9.44243 11.6229 9.7994 12.2515 10.3664 12.6286C10.0304 12.6076 9.7154 12.5238 9.42143 12.3772V12.3981C9.42143 13.4038 10.1354 14.2418 11.0803 14.4304C10.9123 14.4723 10.7233 14.4932 10.5343 14.4932C10.4083 14.4932 10.2614 14.4723 10.1354 14.4513C10.4083 15.2684 11.1643 15.876 12.0672 15.876C11.3533 16.4207 10.4713 16.756 9.50542 16.756C9.33744 16.756 9.16945 16.756 9.02246 16.735C9.94639 17.3216 11.0173 17.6569 12.1932 17.6569C15.9939 17.6569 18.0727 14.5142 18.0727 11.7906C18.0727 11.7067 18.0727 11.602 18.0727 11.5182C18.4717 11.2458 18.8287 10.8897 19.1016 10.4706Z" fill="white"/>
</svg>
