<svg width="16" height="16" viewBox="0 0 16 16" fill="none" xmlns="http://www.w3.org/2000/svg">
<path d="M7.90283 0.505608L8 0.5C8.42733 0.5 8.77958 0.8217 8.82775 1.23615L8.83333 1.33333V7.16667H14.6667C15.094 7.16667 15.4462 7.48833 15.4944 7.90283L15.5 8C15.5 8.42733 15.1783 8.77958 14.7638 8.82775L14.6667 8.83333H8.83333V14.6667C8.83333 15.094 8.51167 15.4462 8.09717 15.4944L8 15.5C7.57267 15.5 7.22042 15.1783 7.17225 14.7638L7.16667 14.6667V8.83333H1.33333C0.905967 8.83333 0.553742 8.51167 0.505608 8.09717L0.5 8C0.5 7.57267 0.8217 7.22042 1.23615 7.17225L1.33333 7.16667H7.16667V1.33333C7.16667 0.905967 7.48833 0.553742 7.90283 0.505608Z" fill="#FF8960"/>
</svg>
