<svg width="20" height="20" viewBox="0 0 20 20" fill="none" xmlns="http://www.w3.org/2000/svg">
<path d="M8.24596 0.400391C3.93814 0.400391 0.445958 3.89257 0.445958 8.20039C0.445958 9.58159 0.805466 10.8805 1.43626 12.0067L0.48137 14.5054C0.129422 15.4263 0.976598 16.3552 1.92594 16.0893L4.9108 15.2533C5.92265 15.7326 7.05378 16.0004 8.24596 16.0004C12.5537 16.0004 16.046 12.5083 16.046 8.20039C16.046 3.89257 12.5537 0.400391 8.24596 0.400391ZM1.64596 8.20039C1.64596 4.55531 4.60087 1.60039 8.24596 1.60039C11.891 1.60039 14.846 4.55531 14.846 8.20039C14.846 11.8455 11.891 14.8004 8.24596 14.8004C7.1634 14.8004 6.14336 14.5402 5.24329 14.0796L5.03424 13.9725L1.6023 14.9337L2.76523 11.8908L2.61129 11.639C1.99899 10.638 1.64596 9.46134 1.64596 8.20039ZM11.8011 19.6004C9.43751 19.6004 7.31949 18.5491 5.88909 16.8886C6.56475 17.0715 7.27194 17.1776 8.00072 17.1972C9.0752 17.9552 10.3862 18.4004 11.8011 18.4004C12.8836 18.4004 13.9036 18.1402 14.8037 17.6796L15.0128 17.5725L18.4448 18.5337L17.2817 15.4906L17.4357 15.239C18.0481 14.238 18.4011 13.0614 18.4011 11.8004C18.4011 10.415 17.9743 9.12936 17.2449 8.06771C17.2343 7.33837 17.137 6.63003 16.9629 5.95255C18.5807 7.38174 19.6011 9.47191 19.6011 11.8004C19.6011 13.1816 19.2416 14.4804 18.6107 15.6067L19.5657 18.1054C19.9175 19.0263 19.0705 19.9552 18.121 19.6893L15.1363 18.8533C14.1244 19.3326 12.9932 19.6004 11.8011 19.6004Z" fill="#808080"/>
</svg>
