<svg width="16" height="17" viewBox="0 0 16 17" fill="none" xmlns="http://www.w3.org/2000/svg">
<path d="M16 8.5C16 12.9183 12.4183 16.5 8 16.5C3.58172 16.5 0 12.9183 0 8.5C0 4.08172 3.58172 0.5 8 0.5C12.4183 0.5 16 4.08172 16 8.5ZM14 8.5C14 7.20415 13.5892 6.00424 12.8907 5.02341L4.52341 13.3907C5.50424 14.0892 6.70415 14.5 8 14.5C11.3137 14.5 14 11.8137 14 8.5ZM11.4765 3.60921C10.4957 2.91078 9.29581 2.5 8 2.5C4.68629 2.5 2 5.18629 2 8.5C2 9.79581 2.41078 10.9957 3.10921 11.9765L11.4765 3.60921Z" fill="#FF8960"/>
</svg>
