<svg width="17" height="20" viewBox="0 0 17 20" fill="none" xmlns="http://www.w3.org/2000/svg">
<path d="M4.25 0.5C3.83579 0.5 3.5 0.83579 3.5 1.25V3.5H2.75C2.33579 3.5 2 3.83579 2 4.25V6.72553C1.11545 7.12573 0.5 8.01599 0.5 9.05V19.25C0.5 19.6642 0.83579 20 1.25 20H16.25C16.6642 20 17 19.6642 17 19.25V14.3C17 11.2348 14.5153 8.75 11.45 8.75H10.9825C10.8766 7.84593 10.2977 7.08644 9.5 6.72553V4.25C9.5 3.83579 9.16421 3.5 8.75 3.5H8V1.25C8 0.83579 7.66421 0.5 7.25 0.5H4.25ZM8 6.5H3.5V5H8V6.5ZM9.5 9.05V18.5H8V16.85C8 16.1043 7.39559 15.5 6.65 15.5H4.85C4.10441 15.5 3.5 16.1043 3.5 16.85V18.5H2V9.05C2 8.4701 2.4701 8 3.05 8H8.45C9.0299 8 9.5 8.4701 9.5 9.05ZM5 18.5V17H6.5V18.5H5ZM11 18.5V10.25H11.45C13.6868 10.25 15.5 12.0632 15.5 14.3V18.5H11ZM6.5 3.5H5V2H6.5V3.5Z" fill="#808080"/>
</svg>
