<svg width="16" height="19" viewBox="0 0 16 19" fill="none" xmlns="http://www.w3.org/2000/svg">
<path d="M2.00043 3.62787L2 13.25C2 15.2383 3.54731 16.865 5.50343 16.9921L5.75 17L12.3716 17.001C12.0625 17.8743 11.2292 18.5 10.25 18.5H5C2.51473 18.5 0.5 16.4854 0.5 14V5.75C0.5 4.77017 1.12631 3.93663 2.00043 3.62787ZM13.25 0.5C14.4926 0.5 15.5 1.50736 15.5 2.75V13.25C15.5 14.4926 14.4926 15.5 13.25 15.5H5.75C4.50736 15.5 3.5 14.4926 3.5 13.25V2.75C3.5 1.50736 4.50736 0.5 5.75 0.5H13.25ZM13.25 2H5.75C5.33579 2 5 2.33579 5 2.75V13.25C5 13.6642 5.33579 14 5.75 14H13.25C13.6642 14 14 13.6642 14 13.25V2.75C14 2.33579 13.6642 2 13.25 2Z" fill="#FF8960"/>
</svg>
