<svg width="15" height="15" viewBox="0 0 15 15" fill="none" xmlns="http://www.w3.org/2000/svg">
<path d="M0.292787 0.793081C0.480314 0.60561 0.734622 0.500295 0.999786 0.500295C1.26495 0.500295 1.51926 0.60561 1.70679 0.793081L6.99979 6.08608L12.2928 0.793081C12.385 0.697571 12.4954 0.621389 12.6174 0.56898C12.7394 0.516571 12.8706 0.488985 13.0034 0.487831C13.1362 0.486677 13.2678 0.511978 13.3907 0.562259C13.5136 0.61254 13.6253 0.686793 13.7192 0.780686C13.8131 0.874579 13.8873 0.986231 13.9376 1.10913C13.9879 1.23202 14.0132 1.3637 14.012 1.49648C14.0109 1.62926 13.9833 1.76048 13.9309 1.88249C13.8785 2.00449 13.8023 2.11483 13.7068 2.20708L8.41379 7.50008L13.7068 12.7931C13.8889 12.9817 13.9897 13.2343 13.9875 13.4965C13.9852 13.7587 13.88 14.0095 13.6946 14.1949C13.5092 14.3803 13.2584 14.4855 12.9962 14.4878C12.734 14.49 12.4814 14.3892 12.2928 14.2071L6.99979 8.91408L1.70679 14.2071C1.51818 14.3892 1.26558 14.49 1.00339 14.4878C0.741188 14.4855 0.490376 14.3803 0.304968 14.1949C0.11956 14.0095 0.0143906 13.7587 0.0121121 13.4965C0.00983372 13.2343 0.110629 12.9817 0.292787 12.7931L5.58579 7.50008L0.292787 2.20708C0.105316 2.01955 0 1.76525 0 1.50008C0 1.23492 0.105316 0.980609 0.292787 0.793081Z" fill="#808080"/>
</svg>
