<svg width="16" height="16" viewBox="0 0 16 16" fill="none" xmlns="http://www.w3.org/2000/svg">
<path d="M6.33334 0.291504C9.67009 0.291504 12.375 2.99645 12.375 6.33317C12.375 7.77642 11.8689 9.10142 11.0246 10.1405L15.1086 14.2246C15.3527 14.4687 15.3527 14.8643 15.1086 15.1084C14.8868 15.3303 14.5395 15.3505 14.2948 15.1689L14.2248 15.1084L10.1407 11.0244C9.10159 11.8688 7.77659 12.3748 6.33334 12.3748C2.99662 12.3748 0.291672 9.66992 0.291672 6.33317C0.291672 2.99645 2.99662 0.291504 6.33334 0.291504ZM6.33334 1.5415C3.68697 1.5415 1.54167 3.6868 1.54167 6.33317C1.54167 8.9795 3.68697 11.1248 6.33334 11.1248C8.97967 11.1248 11.125 8.9795 11.125 6.33317C11.125 3.6868 8.97967 1.5415 6.33334 1.5415Z" fill="#808080"/>
</svg>
