<svg width="18" height="18" viewBox="0 0 18 18" fill="none" xmlns="http://www.w3.org/2000/svg">
<path d="M13.125 10.5C12.5037 10.5 12 9.9963 12 9.375C12 8.7537 12.5037 8.25 13.125 8.25C13.7463 8.25 14.25 8.7537 14.25 9.375C14.25 9.9963 13.7463 10.5 13.125 10.5ZM12 13.125C12 13.7463 12.5037 14.25 13.125 14.25C13.7463 14.25 14.25 13.7463 14.25 13.125C14.25 12.5037 13.7463 12 13.125 12C12.5037 12 12 12.5037 12 13.125ZM9 14.25C8.3787 14.25 7.875 13.7463 7.875 13.125C7.875 12.5037 8.3787 12 9 12C9.6213 12 10.125 12.5037 10.125 13.125C10.125 13.7463 9.6213 14.25 9 14.25ZM7.875 9.375C7.875 9.9963 8.3787 10.5 9 10.5C9.6213 10.5 10.125 9.9963 10.125 9.375C10.125 8.7537 9.6213 8.25 9 8.25C8.3787 8.25 7.875 8.7537 7.875 9.375ZM4.875 10.5C4.25368 10.5 3.75 9.9963 3.75 9.375C3.75 8.7537 4.25368 8.25 4.875 8.25C5.4963 8.25 6 8.7537 6 9.375C6 9.9963 5.4963 10.5 4.875 10.5ZM18 3.75C18 1.67894 16.3211 0 14.25 0H3.75C1.67894 0 0 1.67894 0 3.75V14.25C0 16.3211 1.67894 18 3.75 18H14.25C16.3211 18 18 16.3211 18 14.25V3.75ZM14.25 1.5C15.4927 1.5 16.5 2.50736 16.5 3.75V4.5H1.5V3.75C1.5 2.50736 2.50736 1.5 3.75 1.5H14.25ZM16.5 14.25C16.5 15.4927 15.4927 16.5 14.25 16.5H3.75C2.50736 16.5 1.5 15.4927 1.5 14.25V6H16.5V14.25Z" fill="#585858"/>
</svg>
