<svg width="71" height="30" viewBox="0 0 71 30" fill="none" xmlns="http://www.w3.org/2000/svg">
<path d="M10.168 0.344V0.983999C9.44267 1.00533 8.888 1.09067 8.504 1.24C8.14133 1.368 7.896 1.624 7.768 2.008C7.64 2.37067 7.576 2.94666 7.576 3.736V19.992C7.576 20.6533 7.61867 21.144 7.704 21.464C7.81067 21.784 8.00267 21.9973 8.28 22.104C8.57867 22.2107 9.016 22.264 9.592 22.264H11.16C11.8853 22.264 12.568 22.0933 13.208 21.752C13.848 21.4107 14.424 20.9307 14.936 20.312C15.448 19.672 15.8747 18.9147 16.216 18.04C16.5573 17.1653 16.8133 16.1947 16.984 15.128H17.72C17.656 15.8533 17.624 16.792 17.624 17.944C17.624 18.4347 17.6347 19.1493 17.656 20.088C17.6773 21.0267 17.7413 21.9973 17.848 23C16.76 22.9573 15.5333 22.936 14.168 22.936C12.8027 22.9147 11.5867 22.904 10.52 22.904C9.98667 22.904 9.304 22.904 8.472 22.904C7.64 22.904 6.744 22.9147 5.784 22.936C4.824 22.936 3.85333 22.9467 2.872 22.968C1.89067 22.968 0.962667 22.9787 0.0880001 23V22.36C0.770667 22.3173 1.28267 22.232 1.624 22.104C1.96533 21.976 2.18933 21.72 2.296 21.336C2.424 20.952 2.488 20.376 2.488 19.608V3.736C2.488 2.94666 2.424 2.37067 2.296 2.008C2.18933 1.624 1.95467 1.368 1.592 1.24C1.25067 1.09067 0.749333 1.00533 0.0880001 0.983999V0.344C0.621333 0.365333 1.336 0.386666 2.232 0.407999C3.14933 0.429332 4.12 0.439999 5.144 0.439999C6.08267 0.439999 7 0.429332 7.896 0.407999C8.81333 0.386666 9.57067 0.365333 10.168 0.344ZM27.5865 6.008C29.1438 6.008 30.5092 6.296 31.6825 6.872C32.8558 7.448 33.7732 8.376 34.4345 9.656C35.0958 10.936 35.4265 12.632 35.4265 14.744C35.4265 16.856 35.0958 18.552 34.4345 19.832C33.7732 21.0907 32.8558 22.008 31.6825 22.584C30.5092 23.16 29.1438 23.448 27.5865 23.448C26.0718 23.448 24.7172 23.16 23.5225 22.584C22.3492 22.008 21.4212 21.0907 20.7385 19.832C20.0772 18.552 19.7465 16.856 19.7465 14.744C19.7465 12.632 20.0772 10.936 20.7385 9.656C21.4212 8.376 22.3492 7.448 23.5225 6.872C24.7172 6.296 26.0718 6.008 27.5865 6.008ZM27.5865 6.648C26.7332 6.648 26.0185 7.288 25.4425 8.568C24.8665 9.82667 24.5785 11.8853 24.5785 14.744C24.5785 17.6027 24.8665 19.6613 25.4425 20.92C26.0185 22.1787 26.7332 22.808 27.5865 22.808C28.4612 22.808 29.1758 22.1787 29.7305 20.92C30.3065 19.6613 30.5945 17.6027 30.5945 14.744C30.5945 11.8853 30.3065 9.82667 29.7305 8.568C29.1758 7.288 28.4612 6.648 27.5865 6.648ZM43.6323 29.016C42.3096 29.016 41.1256 28.8987 40.0803 28.664C39.0563 28.4507 38.2456 28.1093 37.6483 27.64C37.0723 27.192 36.7843 26.6373 36.7843 25.976C36.7843 25.3147 37.0829 24.7173 37.6803 24.184C38.2776 23.672 39.1629 23.2667 40.3363 22.968L40.6243 23.48C40.2189 23.8 39.9203 24.1413 39.7283 24.504C39.5576 24.888 39.4723 25.2827 39.4723 25.688C39.4723 26.584 39.8776 27.2667 40.6883 27.736C41.5203 28.2267 42.6403 28.472 44.0483 28.472C45.0083 28.472 45.8616 28.344 46.6083 28.088C47.3763 27.832 47.9736 27.448 48.4003 26.936C48.8483 26.424 49.0723 25.7947 49.0723 25.048C49.0723 24.408 48.8376 23.864 48.3683 23.416C47.8989 22.9893 46.9603 22.776 45.5523 22.776H43.5683C42.6936 22.776 41.9256 22.68 41.2643 22.488C40.6243 22.296 40.1229 21.9973 39.7603 21.592C39.3976 21.1653 39.2163 20.632 39.2163 19.992C39.2163 19.096 39.5683 18.3067 40.2723 17.624C40.9763 16.9413 42.0216 16.3013 43.4083 15.704L43.7283 15.96C43.3229 16.216 42.9389 16.4933 42.5763 16.792C42.2349 17.0693 42.0643 17.432 42.0643 17.88C42.0643 18.5627 42.4909 18.904 43.3443 18.904H46.8323C48.0056 18.904 49.0509 19.0427 49.9683 19.32C50.9069 19.5973 51.6429 20.056 52.1763 20.696C52.7309 21.3147 53.0083 22.1253 53.0083 23.128C53.0083 24.1733 52.6669 25.144 51.9843 26.04C51.3229 26.936 50.2989 27.6507 48.9123 28.184C47.5256 28.7387 45.7656 29.016 43.6323 29.016ZM43.9523 16.184C42.7363 16.184 41.6483 16.0027 40.6883 15.64C39.7283 15.2773 38.9709 14.7227 38.4163 13.976C37.8616 13.2293 37.5843 12.2693 37.5843 11.096C37.5843 9.92267 37.8616 8.96267 38.4163 8.216C38.9709 7.448 39.7283 6.89333 40.6883 6.552C41.6483 6.18933 42.7363 6.008 43.9523 6.008C45.1683 6.008 46.2563 6.18933 47.2163 6.552C48.1763 6.89333 48.9336 7.448 49.4883 8.216C50.0429 8.96267 50.3203 9.92267 50.3203 11.096C50.3203 12.2693 50.0429 13.2293 49.4883 13.976C48.9336 14.7227 48.1763 15.2773 47.2163 15.64C46.2563 16.0027 45.1683 16.184 43.9523 16.184ZM43.9523 15.608C44.5283 15.608 44.9763 15.288 45.2963 14.648C45.6163 13.9867 45.7763 12.8027 45.7763 11.096C45.7763 9.38933 45.6163 8.216 45.2963 7.576C44.9763 6.91467 44.5283 6.584 43.9523 6.584C43.3976 6.584 42.9496 6.91467 42.6083 7.576C42.2883 8.216 42.1283 9.38933 42.1283 11.096C42.1283 12.8027 42.2883 13.9867 42.6083 14.648C42.9496 15.288 43.3976 15.608 43.9523 15.608ZM48.9443 8.76L48.3043 8.536C48.6243 7.704 49.1363 7.01067 49.8403 6.456C50.5656 5.90133 51.3443 5.624 52.1763 5.624C52.8589 5.624 53.3709 5.816 53.7123 6.2C54.0749 6.56267 54.2563 7.04267 54.2563 7.64C54.2563 8.28 54.0856 8.76 53.7443 9.08C53.4029 9.37867 53.0189 9.528 52.5923 9.528C52.2296 9.528 51.8883 9.4 51.5683 9.144C51.2696 8.888 51.0989 8.504 51.0563 7.992C51.0136 7.45867 51.1949 6.776 51.6003 5.944L51.8243 6.136C51.0136 6.43467 50.4056 6.78667 50.0003 7.192C49.5949 7.576 49.2429 8.09867 48.9443 8.76ZM62.8678 6.008C64.4251 6.008 65.7904 6.296 66.9638 6.872C68.1371 7.448 69.0544 8.376 69.7158 9.656C70.3771 10.936 70.7078 12.632 70.7078 14.744C70.7078 16.856 70.3771 18.552 69.7158 19.832C69.0544 21.0907 68.1371 22.008 66.9638 22.584C65.7904 23.16 64.4251 23.448 62.8678 23.448C61.3531 23.448 59.9984 23.16 58.8038 22.584C57.6304 22.008 56.7024 21.0907 56.0198 19.832C55.3584 18.552 55.0278 16.856 55.0278 14.744C55.0278 12.632 55.3584 10.936 56.0198 9.656C56.7024 8.376 57.6304 7.448 58.8038 6.872C59.9984 6.296 61.3531 6.008 62.8678 6.008ZM62.8678 6.648C62.0144 6.648 61.2998 7.288 60.7238 8.568C60.1478 9.82667 59.8598 11.8853 59.8598 14.744C59.8598 17.6027 60.1478 19.6613 60.7238 20.92C61.2998 22.1787 62.0144 22.808 62.8678 22.808C63.7424 22.808 64.4571 22.1787 65.0118 20.92C65.5878 19.6613 65.8758 17.6027 65.8758 14.744C65.8758 11.8853 65.5878 9.82667 65.0118 8.568C64.4571 7.288 63.7424 6.648 62.8678 6.648Z" fill="#323232"/>
</svg>
