<svg width="16" height="16" viewBox="0 0 16 16" fill="none" xmlns="http://www.w3.org/2000/svg">
<path d="M6.33335 0.291504C9.6701 0.291504 12.375 2.99645 12.375 6.33317C12.375 7.77642 11.8689 9.10142 11.0246 10.1405L15.1086 14.2246C15.3527 14.4687 15.3527 14.8643 15.1086 15.1084C14.8868 15.3303 14.5395 15.3505 14.2949 15.1689L14.2248 15.1084L10.1407 11.0244C9.1016 11.8688 7.7766 12.3748 6.33335 12.3748C2.99664 12.3748 0.291687 9.66992 0.291687 6.33317C0.291687 2.99645 2.99664 0.291504 6.33335 0.291504ZM6.33335 1.5415C3.68699 1.5415 1.54169 3.6868 1.54169 6.33317C1.54169 8.9795 3.68699 11.1248 6.33335 11.1248C8.97969 11.1248 11.125 8.9795 11.125 6.33317C11.125 3.6868 8.97969 1.5415 6.33335 1.5415Z" fill="#808080"/>
</svg>
