<svg width="18" height="18" viewBox="0 0 18 18" fill="none" xmlns="http://www.w3.org/2000/svg">
<path d="M16.5252 1.47498C17.6898 2.63953 17.6898 4.52764 16.5252 5.69219L6.55165 15.6658C6.32092 15.8965 6.03397 16.0631 5.71917 16.1489L1.45609 17.3116C0.989533 17.4388 0.561425 17.0107 0.688667 16.5442L1.85132 12.2811C1.93718 11.9663 2.1037 11.6793 2.33443 11.4486L12.3081 1.47498C13.4726 0.310425 15.3607 0.310425 16.5252 1.47498ZM11.5001 4.05073L3.21832 12.3325C3.14141 12.4094 3.0859 12.505 3.05728 12.61L2.18241 15.8178L5.39028 14.9429C5.49521 14.9143 5.59086 14.8588 5.66777 14.7819L13.9493 6.4999L11.5001 4.05073ZM13.1919 2.35886L12.3835 3.16657L14.8326 5.61657L15.6414 4.80831C16.3177 4.13192 16.3177 3.03526 15.6414 2.35886C14.965 1.68247 13.8683 1.68247 13.1919 2.35886Z" fill="#323232"/>
</svg>
