<svg width="22" height="19" viewBox="0 0 22 19" fill="none" xmlns="http://www.w3.org/2000/svg">
<path d="M1.53776 2.34714C3.76735 -0.780894 8.4134 -0.784262 10.6475 2.34053L10.9959 2.82775L11.3088 2.38343C13.525 -0.762999 18.1791 -0.794057 20.4372 2.32252C22.0101 4.49367 21.8268 7.4744 19.9995 9.4364L11.5493 18.5098C11.4073 18.6623 11.2083 18.7488 10.9999 18.7487C10.7916 18.7485 10.5927 18.6618 10.4509 18.5091L1.99437 9.40392C0.187032 7.45797 -0.00373054 4.5098 1.53776 2.34714ZM9.42732 3.21294C7.79202 0.925678 4.39122 0.928146 2.75922 3.21778C1.6309 4.8008 1.77054 6.95878 3.09345 8.38317L11.0012 16.8974L18.9019 8.41407C20.2404 6.97678 20.3748 4.79315 19.2225 3.20257C17.5683 0.919416 14.1587 0.942163 12.5352 3.2472L11.6136 4.55555C11.4737 4.7543 11.2462 4.8728 11.0031 4.8737C10.7601 4.87453 10.5317 4.7576 10.3903 4.5599L9.42732 3.21294Z" fill="#585858"/>
</svg>
