<svg width="20" height="20" viewBox="0 0 20 20" fill="none" xmlns="http://www.w3.org/2000/svg">
<path d="M7.08512 9.58301C7.54635 9.58301 7.92025 9.95692 7.92025 10.4182C7.92025 10.8793 7.54635 11.2533 7.08512 11.2533C6.6239 11.2533 6.25 10.8793 6.25 10.4182C6.25 9.95692 6.6239 9.58301 7.08512 9.58301Z" fill="#808080"/>
<path d="M10 3.62808V8.74959L10.0004 9.17043L16.2017 9.16959L14.7664 7.73314C14.5445 7.51122 14.5244 7.16399 14.7059 6.91934L14.7665 6.84926C14.9884 6.62741 15.3356 6.60729 15.5803 6.78888L15.6504 6.84941L18.1475 9.34743C18.3692 9.56918 18.3895 9.91601 18.2084 10.1607L18.1479 10.2308L15.6508 12.7336C15.407 12.978 15.0113 12.9784 14.7669 12.7346C14.5448 12.513 14.5242 12.1658 14.7054 11.9209L14.7659 11.8508L16.1934 10.4196L10.0004 10.4204L10 16.0413C10 16.4299 9.64902 16.7243 9.26635 16.6568L2.18298 15.4057C1.88436 15.3529 1.66669 15.0934 1.66669 14.7902V4.79128C1.66669 4.48518 1.88836 4.22413 2.19041 4.17453L9.27377 3.01134C9.65427 2.94885 10 3.24247 10 3.62808ZM8.75002 4.36408L2.91669 5.32201V14.2659L8.75002 15.2962V4.36408Z" fill="#808080"/>
<path d="M10.8333 15.4178L11.471 15.4179L11.5558 15.4122C11.8612 15.3707 12.0965 15.1087 12.096 14.7918L12.09 11.25H10.8333V15.4178Z" fill="#808080"/>
<path d="M10.835 8.33365L10.8333 7.27145V4.16699L11.4544 4.167C11.7704 4.167 12.0317 4.4016 12.0736 4.70626L12.0794 4.79097L12.085 8.33365H10.835Z" fill="#808080"/>
</svg>
