<svg width="16" height="16" viewBox="0 0 16 16" fill="none" xmlns="http://www.w3.org/2000/svg">
<path fill-rule="evenodd" clip-rule="evenodd" d="M6.04999 1.70503C6.18127 1.57375 6.35932 1.5 6.54497 1.5H9.44497C9.63062 1.5 9.80867 1.57375 9.93994 1.70503C10.0712 1.8363 10.145 2.01435 10.145 2.2V2.9L5.84497 2.89999V2.2C5.84497 2.01435 5.91872 1.8363 6.04999 1.70503ZM4.34497 2.89999V2.2C4.34497 1.61652 4.57675 1.05694 4.98933 0.644365C5.40191 0.231785 5.96149 0 6.54497 0H9.44497C10.0284 0 10.588 0.231785 11.0006 0.644365C11.4132 1.05694 11.645 1.61652 11.645 2.2V2.9L14.52 2.89999C14.9342 2.89999 15.27 3.23578 15.27 3.64999C15.27 4.06421 14.9342 4.39999 14.52 4.39999H13.82V13.8C13.82 14.3835 13.5882 14.9431 13.1756 15.3556C12.763 15.7682 12.2034 16 11.62 16H4.36997C3.78649 16 3.22691 15.7682 2.81433 15.3556C2.40175 14.9431 2.16997 14.3835 2.16997 13.8V4.39999H1.46997C1.05576 4.39999 0.719971 4.06421 0.719971 3.64999C0.719971 3.23578 1.05576 2.89999 1.46997 2.89999H4.34497ZM3.66997 13.8V4.4H12.32V13.8C12.32 13.9857 12.2462 14.1637 12.1149 14.295C11.9837 14.4263 11.8056 14.5 11.62 14.5H4.36997C4.18432 14.5 4.00627 14.4263 3.87499 14.295C3.74372 14.1637 3.66997 13.9857 3.66997 13.8ZM6.54498 6.52502C6.9592 6.52502 7.29498 6.86081 7.29498 7.27502V11.625C7.29498 12.0392 6.9592 12.375 6.54498 12.375C6.13077 12.375 5.79498 12.0392 5.79498 11.625V7.27502C5.79498 6.86081 6.13077 6.52502 6.54498 6.52502ZM10.1949 7.27502C10.1949 6.86081 9.85916 6.52502 9.44495 6.52502C9.03073 6.52502 8.69495 6.86081 8.69495 7.27502V11.625C8.69495 12.0392 9.03073 12.375 9.44495 12.375C9.85916 12.375 10.1949 12.0392 10.1949 11.625V7.27502Z" fill="#E94D3F"/>
</svg>
