<svg width="1366" height="51" viewBox="0 0 1366 51" fill="none" xmlns="http://www.w3.org/2000/svg">
<g clip-path="url(#clip0_1297_11262)">
<path d="M0 26.5504L75.8889 19.119C151.778 11.9654 303.556 -3.31417 455.333 0.644624C607.111 4.32561 758.889 26.5504 910.667 33.9818C1062.44 41.1354 1214.22 34.1902 1290.11 30.2314L1366 26.5504V71H1290.11C1214.22 71 1062.44 71 910.667 71C758.889 71 607.111 71 455.333 71C303.556 71 151.778 71 75.8889 71H0L0 26.5504Z" fill="#EAEDEE"/>
<path d="M0 44.0798L75.8889 39.5791C151.778 35.2466 303.556 25.9928 455.333 28.3904C607.111 30.6197 758.889 44.0798 910.667 48.5805C1062.44 52.913 1214.22 48.7067 1290.11 46.3091L1366 44.0798V71L1290.11 71C1214.22 71 1062.44 71 910.667 71C758.889 71 607.111 71 455.333 71C303.556 71 151.778 71 75.8889 71H0L0 44.0798Z" fill="white"/>
</g>
<defs>
<clipPath id="clip0_1297_11262">
<rect width="1366" height="51" fill="white"/>
</clipPath>
</defs>
</svg>
