<svg width="1366" height="51" viewBox="0 0 1366 51" fill="none" xmlns="http://www.w3.org/2000/svg">
<g clip-path="url(#clip0_185_743)">
<path d="M1366 24.4496L1290.11 31.881C1214.22 39.0346 1062.44 54.3142 910.667 50.3554C758.889 46.6744 607.111 24.4496 455.333 17.0182C303.556 9.86457 151.778 16.8098 75.8888 20.7686L0 24.4496V-20H75.8888C151.778 -20 303.556 -20 455.333 -20C607.111 -20 758.889 -20 910.667 -20C1062.44 -20 1214.22 -20 1290.11 -20H1366V24.4496Z" fill="#EAEDEE"/>
<path d="M1366 6.92018L1290.11 11.4209C1214.22 15.7534 1062.44 25.0072 910.667 22.6096C758.889 20.3803 607.111 6.92017 455.333 2.41946C303.556 -1.91301 151.778 2.29328 75.8888 4.69086L0 6.92018V-20L75.8888 -20C151.778 -20 303.556 -20 455.333 -20C607.111 -20 758.889 -20 910.667 -20C1062.44 -20 1214.22 -20 1290.11 -20H1366V6.92018Z" fill="white"/>
</g>
<defs>
<clipPath id="clip0_185_743">
<rect width="1366" height="51" fill="white" transform="matrix(-1 0 0 -1 1366 51)"/>
</clipPath>
</defs>
</svg>
